<?xml version="1.0" encoding="UTF-8" standalone="no"?>
<svg
   xmlns:dc="http://purl.org/dc/elements/1.1/"
   xmlns:cc="http://creativecommons.org/ns#"
   xmlns:rdf="http://www.w3.org/1999/02/22-rdf-syntax-ns#"
   xmlns:svg="http://www.w3.org/2000/svg"
   xmlns="http://www.w3.org/2000/svg"
   xmlns:sodipodi="http://sodipodi.sourceforge.net/DTD/sodipodi-0.dtd"
   xmlns:inkscape="http://www.inkscape.org/namespaces/inkscape"
   inkscape:version="1.0 (4035a4fb49, 2020-05-01)"
   sodipodi:docname="digital-marketing.svg"
   xml:space="preserve"
   style="enable-background:new 0 0 490 490;"
   viewBox="0 0 490 490"
   y="0px"
   x="0px"
   id="Capa_1"
   version="1.1"><metadata
   id="metadata41"><rdf:RDF><cc:Work
       rdf:about=""><dc:format>image/svg+xml</dc:format><dc:type
         rdf:resource="http://purl.org/dc/dcmitype/StillImage" /><dc:title /></cc:Work></rdf:RDF></metadata><defs
   id="defs39"><marker
     inkscape:isstock="true"
     style="overflow:visible"
     id="Arrow1Lstart"
     refX="0.0"
     refY="0.0"
     orient="auto"
     inkscape:stockid="Arrow1Lstart"><path
       transform="scale(0.8) translate(12.5,0)"
       style="fill-rule:evenodd;stroke:#000000;stroke-width:1.0pt"
       d="M 0.0,0.0 L 5.0,-5.0 L -12.5,0.0 L 5.0,5.0 L 0.0,0.0 z "
       id="path879" /></marker></defs><sodipodi:namedview
   inkscape:current-layer="g4"
   inkscape:window-maximized="1"
   inkscape:window-y="-8"
   inkscape:window-x="-8"
   inkscape:cy="151.2431"
   inkscape:cx="250.54854"
   inkscape:zoom="1.1039267"
   showgrid="false"
   id="namedview37"
   inkscape:window-height="837"
   inkscape:window-width="1600"
   inkscape:pageshadow="2"
   inkscape:pageopacity="0"
   guidetolerance="10"
   gridtolerance="10"
   objecttolerance="10"
   borderopacity="1"
   bordercolor="#666666"
   pagecolor="#ffffff"
   inkscape:document-rotation="0" />

<g
   id="g6">
</g>
<g
   id="g8">
</g>
<g
   id="g10">
</g>
<g
   id="g12">
</g>
<g
   id="g14">
</g>
<g
   id="g16">
</g>
<g
   id="g18">
</g>
<g
   id="g20">
</g>
<g
   id="g22">
</g>
<g
   id="g24">
</g>
<g
   id="g26">
</g>
<g
   id="g28">
</g>
<g
   id="g30">
</g>
<g
   id="g32">
</g>
<g
   id="g34">
</g>
<g
   style="fill:#fbbd0d;fill-opacity:1;stroke:#fd1d4a;stroke-opacity:0"
   id="g4">
	<path
   style="fill:#fca311;fill-opacity:1;stroke:#fd1d4a;stroke-opacity:0"
   id="path2"
   d="m 480,277.715 h -38.756 v -38.859 c 0,-5.521 -4.478,-10 -10,-10 H 255 v -23.91 h 74.56 c 5.523,0 10,-4.477 10,-10 V 104.78 c 0,-5.521 -4.477,-10 -10,-10 H 160.438 c -5.522,0 -10,4.479 -10,10 v 90.166 c 0,5.523 4.478,10 10,10 H 235 v 23.91 H 58.756 c -5.522,0 -10,4.479 -10,10 v 38.859 H 10 c -5.523,0 -10,4.477 -10,10 v 97.506 c 0,5.521 4.477,10 10,10 h 97.51 c 5.523,0 10,-4.479 10,-10 v -97.506 c 0,-5.523 -4.477,-10 -10,-10 H 68.756 V 248.856 H 235 v 28.859 h -38.758 c -5.523,0 -10,4.477 -10,10 v 97.506 c 0,5.521 4.477,10 10,10 h 97.514 c 5.522,0 10,-4.479 10,-10 v -97.506 c 0,-5.523 -4.478,-10 -10,-10 H 255 v -28.859 h 166.244 v 28.859 h -38.758 c -5.522,0 -10,4.477 -10,10 v 97.506 c 0,5.521 4.478,10 10,10 H 480 c 5.522,0 10,-4.479 10,-10 v -97.506 c 0,-5.524 -4.478,-10 -10,-10 z M 170.438,114.779 H 319.56 v 70.166 H 170.438 Z M 97.51,375.221 H 20 v -77.506 h 77.51 z m 186.246,0 h -77.514 v -77.506 h 77.514 z m 186.244,0 H 392.486 V 297.715 H 470 Z" />
</g><path
   sodipodi:nodetypes="cccsscccccssccccccccc"
   id="path1153"
   d="m 421.244,277.715 h 20 l 0.13311,-40.09018 c 0,0 0.056,-3.93994 -3.18005,-6.65555 -1.24143,-1.04179 -3.18787,-2.34442 -5.48201,-2.52365 C 424.44085,227.7992 255,228.856 255,228.856 v -23.91 h -20 v 23.91 L 57.790149,228.8335 c 0,0 -7.498492,0.64643 -9.179196,8.53278 -0.56812,2.66578 -0.08917,8.13967 -0.06193,14.21864 C 48.602364,263.48967 48.756,277.715 48.756,277.715 h 20 V 248.856 H 235 v 28.859 h 20 v -28.859 h 166.244 z"
   style="fill:#14213d;fill-opacity:1;stroke:#ffdd11;stroke-width:0;stroke-linecap:butt;stroke-linejoin:miter;stroke-miterlimit:4;stroke-dasharray:none;stroke-opacity:1;paint-order:fill markers stroke" /></svg>
