<?xml version="1.0" encoding="UTF-8" standalone="no"?>
<svg
   xmlns:dc="http://purl.org/dc/elements/1.1/"
   xmlns:cc="http://creativecommons.org/ns#"
   xmlns:rdf="http://www.w3.org/1999/02/22-rdf-syntax-ns#"
   xmlns:svg="http://www.w3.org/2000/svg"
   xmlns="http://www.w3.org/2000/svg"
   xmlns:sodipodi="http://sodipodi.sourceforge.net/DTD/sodipodi-0.dtd"
   xmlns:inkscape="http://www.inkscape.org/namespaces/inkscape"
   inkscape:version="1.0 (4035a4fb49, 2020-05-01)"
   sodipodi:docname="illustration-tool.svg"
   xml:space="preserve"
   style="enable-background:new 0 0 490 490;"
   viewBox="0 0 490 490"
   y="0px"
   x="0px"
   id="Capa_1"
   version="1.1"><metadata
   id="metadata45"><rdf:RDF><cc:Work
       rdf:about=""><dc:format>image/svg+xml</dc:format><dc:type
         rdf:resource="http://purl.org/dc/dcmitype/StillImage" /></cc:Work></rdf:RDF></metadata><defs
   id="defs43" /><sodipodi:namedview
   inkscape:current-layer="g8"
   inkscape:window-maximized="1"
   inkscape:window-y="-8"
   inkscape:window-x="-8"
   inkscape:cy="227.44776"
   inkscape:cx="245"
   inkscape:zoom="1.3673469"
   showgrid="false"
   id="namedview41"
   inkscape:window-height="837"
   inkscape:window-width="1600"
   inkscape:pageshadow="2"
   inkscape:pageopacity="0"
   guidetolerance="10"
   gridtolerance="10"
   objecttolerance="10"
   borderopacity="1"
   bordercolor="#666666"
   pagecolor="#ffffff"
   inkscape:document-rotation="0" />
<g
   id="g8">
	
	<path
   style="stroke-width:0.844589;fill:#fca311;fill-opacity:1"
   id="path4"
   d="m 255.16524,285.36254 c 0,0 -2.20223,-4.26156 -7.62005,-4.26156 -5.41694,0 -7.59484,4.2476 -7.60353,4.26156 l -56.84879,96.98491 c -2.2987,3.92093 -0.80737,8.87688 3.30857,11.10944 1.14631,0.62216 28.07893,15.5885 28.07893,46.91899 0,4.53242 3.89172,8.20794 8.69075,8.20794 h 48.74901 c 4.79903,0 8.69075,-3.67552 8.69075,-8.20794 0,-31.33049 26.93263,-46.29683 28.04765,-46.90258 4.16026,-2.21203 5.65246,-7.18112 3.33986,-11.12667 -8.7e-4,8.2e-4 -56.82185,-96.96439 -56.83315,-96.98409 z m 8.54735,146.80541 H 231.3778 c -3.02786,-25.30751 -19.55071,-41.09793 -29.28522,-48.34225 l 36.76187,-62.73568 v 33.6993 c 0,4.53242 3.89084,8.20793 8.69074,8.20793 4.79903,0 8.69075,-3.67551 8.69075,-8.20793 v -33.6993 l 36.76273,62.7365 c -9.7345,7.2435 -26.25822,23.03392 -29.28608,48.34143 z" />
	<path
   style="stroke-width:0.95034;fill:#14213d;fill-opacity:1"
   id="path6"
   d="m 467.91934,70.208956 h -45.61473 c -6.01773,0 -10.89775,3.710282 -10.89775,8.287428 v 34.688696 c 0,4.57714 4.88002,8.28742 10.89775,8.28742 h 8.88167 c -13.8456,58.07084 -73.60669,103.66827 -150.22552,114.23889 v -6.75094 c 0,-4.57632 -4.88001,-8.28743 -10.89776,-8.28743 h -45.61691 c -6.01774,0 -10.89775,3.71111 -10.89775,8.28743 v 6.75094 C 136.91861,225.13994 77.171692,179.56655 63.322824,121.4725 h 8.883849 c 6.017729,0 10.897741,-3.71028 10.897741,-8.28742 V 78.496384 c 0,-4.577146 -4.880012,-8.287428 -10.897741,-8.287428 H 26.590858 c -6.017739,0 -10.897753,3.710282 -10.897753,8.287428 v 34.688696 c 0,4.57714 4.880014,8.28742 10.897753,8.28742 h 14.633504 c 6.900455,32.10136 26.946867,62.26262 57.088967,85.60002 16.358611,12.66651 35.414421,23.10867 56.144131,30.94443 H 79.411176 c -3.368493,-3.50475 -8.797758,-5.79126 -14.942998,-5.79126 -10.227541,0 -18.515282,6.30259 -18.515282,14.07869 0,7.77692 8.287741,14.08034 18.515282,14.08034 6.14524,0 11.576682,-2.28733 14.944092,-5.79291 h 134.13607 v 9.05815 c 0,4.57715 4.88001,8.28743 10.89775,8.28743 H 270.063 c 6.01775,0 10.89776,-3.71028 10.89776,-8.28743 v -9.05815 h 134.13608 c 3.3685,3.50558 8.79885,5.79291 14.94628,5.79291 10.22535,0 18.5131,-6.30425 18.5131,-14.08034 0,-7.7761 -8.28775,-14.07869 -18.5131,-14.07869 -6.14743,0 -11.57669,2.28651 -14.94519,5.79126 h -75.04738 c 20.77439,-7.854 39.86943,-18.32185 56.25094,-31.02399 30.08216,-23.32496 50.09152,-53.45888 56.98326,-85.52046 h 14.63459 c 6.01773,0 10.89775,-3.71028 10.89775,-8.28742 V 78.496384 c 0,-4.577146 -4.87892,-8.287428 -10.89775,-8.287428 z M 37.488612,86.783812 H 61.30892 V 104.89765 H 37.488612 Z M 259.16634,255.36254 h -23.82249 v -18.11466 h 23.82139 v 18.11466 z M 457.02158,104.89765 H 433.20237 V 86.783812 h 23.81921 z" />
</g>
<g
   id="g10">
</g>
<g
   id="g12">
</g>
<g
   id="g14">
</g>
<g
   id="g16">
</g>
<g
   id="g18">
</g>
<g
   id="g20">
</g>
<g
   id="g22">
</g>
<g
   id="g24">
</g>
<g
   id="g26">
</g>
<g
   id="g28">
</g>
<g
   id="g30">
</g>
<g
   id="g32">
</g>
<g
   id="g34">
</g>
<g
   id="g36">
</g>
<g
   id="g38">
</g>
</svg>
